<?xml version="1.0" encoding="UTF-8" standalone="no"?>
<svg
   xmlns:dc="http://purl.org/dc/elements/1.1/"
   xmlns:cc="http://creativecommons.org/ns#"
   xmlns:rdf="http://www.w3.org/1999/02/22-rdf-syntax-ns#"
   xmlns:svg="http://www.w3.org/2000/svg"
   xmlns="http://www.w3.org/2000/svg"
   xmlns:sodipodi="http://sodipodi.sourceforge.net/DTD/sodipodi-0.dtd"
   xmlns:inkscape="http://www.inkscape.org/namespaces/inkscape"
   x="0px"
   y="0px"
   width="48"
   height="48"
   viewBox="0 0 24 24"
   style="fill:#000000"
   version="1.1"
   id="svg4"
   sodipodi:docname="html5.svg"
   inkscape:version="0.92.5 (2060ec1f9f, 2020-04-08)">
  <metadata
     id="metadata10">
    <rdf:RDF>
      <cc:Work
         rdf:about="">
        <dc:format>image/svg+xml</dc:format>
        <dc:type
           rdf:resource="http://purl.org/dc/dcmitype/StillImage" />
        <dc:title></dc:title>
      </cc:Work>
    </rdf:RDF>
  </metadata>
  <defs
     id="defs8" />
  <sodipodi:namedview
     pagecolor="#ffffff"
     bordercolor="#666666"
     borderopacity="1"
     objecttolerance="10"
     gridtolerance="10"
     guidetolerance="10"
     inkscape:pageopacity="0"
     inkscape:pageshadow="2"
     inkscape:window-width="1366"
     inkscape:window-height="704"
     id="namedview6"
     showgrid="false"
     inkscape:zoom="3.9333333"
     inkscape:cx="-5.9745761"
     inkscape:cy="27.457627"
     inkscape:window-x="0"
     inkscape:window-y="27"
     inkscape:window-maximized="1"
     inkscape:current-layer="svg4" />
  <path
     d="M 22.228117,0.57660734 C 22.041765,0.36867746 21.775968,0.2500005 21.49742,0.2500005 H 2.5032215 c -0.2785476,0 -0.5443447,0.11867696 -0.730697,0.32660684 C 1.5861723,0.7845372 1.4979001,1.062104 1.528305,1.33869 l 2.1597245,19.442424 c 0.043155,0.395263 0.3226837,0.725793 0.7051962,0.834662 l 7.3363933,2.095973 c 0.08827,0.0255 0.179487,0.03825 0.269721,0.03825 0.09023,0 0.181448,-0.01275 0.26972,-0.03825 l 7.336394,-2.095973 c 0.382513,-0.108869 0.66106,-0.439399 0.705196,-0.834662 L 22.471356,1.33869 C 22.502746,1.062104 22.414466,0.7845372 22.228117,0.57660734 Z M 17.521251,7.5373544 H 8.7626956 l 0.2079299,2.4931966 h 8.3397535 l -0.625751,7.365818 -4.681365,1.488856 -0.0461,-0.01471 -4.6293817,-1.476106 -0.2530468,-3.001252 h 2.2676127 l 0.099061,1.166173 2.5863728,0.569846 2.541256,-0.570827 0.269721,-3.151314 H 6.9040771 L 6.2900955,5.1540072 H 17.725258 Z"
     id="path2"
     style="opacity:1;fill:#00b201;fill-opacity:1;stroke-width:0.98080134"
     inkscape:connector-curvature="0" />
</svg>
