<?xml version="1.0" encoding="UTF-8" standalone="no"?>
<svg
   xmlns:dc="http://purl.org/dc/elements/1.1/"
   xmlns:cc="http://creativecommons.org/ns#"
   xmlns:rdf="http://www.w3.org/1999/02/22-rdf-syntax-ns#"
   xmlns:svg="http://www.w3.org/2000/svg"
   xmlns="http://www.w3.org/2000/svg"
   xmlns:sodipodi="http://sodipodi.sourceforge.net/DTD/sodipodi-0.dtd"
   xmlns:inkscape="http://www.inkscape.org/namespaces/inkscape"
   x="0px"
   y="0px"
   width="48"
   height="48"
   viewBox="0 0 48 48"
   style="fill:#000000"
   version="1.1"
   id="svg4"
   sodipodi:docname="js.svg"
   inkscape:version="0.92.5 (2060ec1f9f, 2020-04-08)">
  <metadata
     id="metadata10">
    <rdf:RDF>
      <cc:Work
         rdf:about="">
        <dc:format>image/svg+xml</dc:format>
        <dc:type
           rdf:resource="http://purl.org/dc/dcmitype/StillImage" />
        <dc:title></dc:title>
      </cc:Work>
    </rdf:RDF>
  </metadata>
  <defs
     id="defs8" />
  <sodipodi:namedview
     pagecolor="#ffffff"
     bordercolor="#666666"
     borderopacity="1"
     objecttolerance="10"
     gridtolerance="10"
     guidetolerance="10"
     inkscape:pageopacity="0"
     inkscape:pageshadow="2"
     inkscape:window-width="1366"
     inkscape:window-height="704"
     id="namedview6"
     showgrid="false"
     inkscape:zoom="4.72"
     inkscape:cx="-5.8262712"
     inkscape:cy="25"
     inkscape:window-x="0"
     inkscape:window-y="27"
     inkscape:window-maximized="1"
     inkscape:current-layer="svg4" />
  <path
     d="M 44.238491,1.3647306 C 44.048825,1.1580933 43.782292,1.0403 43.501785,1.0403 H 4.4982459 C 4.2177382,1.0403 3.951206,1.1580933 3.7615389,1.3647306 3.5718718,1.5713679 3.4790348,1.8488807 3.503991,2.1273919 L 7.0178233,41.485309 c 0.036935,0.411278 0.3234323,0.75767 0.720735,0.87147 l 15.9819477,4.564987 c 0.08884,0.02496 0.181681,0.03793 0.27352,0.03793 0.09184,0 0.184676,-0.01298 0.27352,-0.03793 l 15.995923,-4.564987 c 0.397302,-0.113801 0.6838,-0.460192 0.720735,-0.87147 L 44.496039,2.1273963 C 44.520997,1.8488851 44.427159,1.5713722 44.238491,1.3647349 Z M 11.022793,27.996985 18.010528,29.935581 V 10.02453 H 22.00352 V 35.978974 L 11.022793,32.93332 Z m 26.008349,-6.991729 -1.052153,12.228536 -9.982478,2.745182 v -4.592938 l 6.738173,-1.85175 0.249562,-3.743429 -6.987735,1.203886 V 10.02453 h 11.978974 l -0.344396,3.992992 h -7.641587 v 7.985982 z"
     id="path2"
     style="fill:#00b102;fill-opacity:1;stroke-width:0.99824786"
     inkscape:connector-curvature="0" />
</svg>
