<?xml version="1.0" encoding="UTF-8" standalone="no"?>
<svg
   xmlns:dc="http://purl.org/dc/elements/1.1/"
   xmlns:cc="http://creativecommons.org/ns#"
   xmlns:rdf="http://www.w3.org/1999/02/22-rdf-syntax-ns#"
   xmlns:svg="http://www.w3.org/2000/svg"
   xmlns="http://www.w3.org/2000/svg"
   xmlns:sodipodi="http://sodipodi.sourceforge.net/DTD/sodipodi-0.dtd"
   xmlns:inkscape="http://www.inkscape.org/namespaces/inkscape"
   id="sequelize"
   viewBox="0 0 48 48"
   version="1.1"
   sodipodi:docname="sequelize.svg"
   inkscape:version="0.92.5 (2060ec1f9f, 2020-04-08)"
   width="48"
   height="48">
  <metadata
     id="metadata66">
    <rdf:RDF>
      <cc:Work
         rdf:about="">
        <dc:format>image/svg+xml</dc:format>
        <dc:type
           rdf:resource="http://purl.org/dc/dcmitype/StillImage" />
        <dc:title>Artboard 12</dc:title>
      </cc:Work>
    </rdf:RDF>
  </metadata>
  <sodipodi:namedview
     pagecolor="#ffffff"
     bordercolor="#666666"
     borderopacity="1"
     objecttolerance="10"
     gridtolerance="10"
     guidetolerance="10"
     inkscape:pageopacity="0"
     inkscape:pageshadow="2"
     inkscape:window-width="1366"
     inkscape:window-height="704"
     id="namedview64"
     showgrid="false"
     inkscape:zoom="1.84375"
     inkscape:cx="62.382794"
     inkscape:cy="104.9694"
     inkscape:window-x="0"
     inkscape:window-y="27"
     inkscape:window-maximized="1"
     inkscape:current-layer="sequelize" />
  <defs
     id="defs4">
    <style
       id="style2">.cls-1{fill:#2f406a;}.cls-2{fill:#2379bd;}.cls-3{fill:#03afef;}</style>
  </defs>
  <title
     id="title6">Artboard 12</title>
  <g
     id="g870"
     transform="matrix(0.37579857,0,0,0.37579857,-0.05110848,-0.05110848)">
    <path
       class="cls-1"
       d="M 101.84,41.72 V 86 l -37.66,22.32 -0.34,0.31 v 16.57 l 0.34,0.32 53,-30.64 V 33.12 l -0.5,-0.12 -15,8.36 0.08,0.36"
       id="path8"
       inkscape:connector-curvature="0"
       style="fill:#00b102;fill-opacity:1" />
    <path
       class="cls-2"
       d="m 26.4,86.4 37.78,21.92 v 17.2 L 10.78,94.76 V 33.24 l 0.55,-0.08 14.91,8.67 0.16,0.5 V 86.4"
       id="path10"
       inkscape:connector-curvature="0"
       style="fill:#008c02;fill-opacity:1" />
    <path
       class="cls-3"
       d="M 26.4,42.32 10.78,33.24 64.06,2.48 117.22,33.12 101.84,41.72 64.06,20.16 26.4,42.32"
       id="path12"
       inkscape:connector-curvature="0"
       style="fill:#00c802;fill-opacity:1" />
    <path
       class="cls-1"
       d="M 63.53,81.33 63.12,80.91 V 64.27 l 0.41,-0.21 0.1,-0.41 14.27,-8.32 0.44,0.1 v 17.15 l -14.8,8.76"
       id="path14"
       inkscape:connector-curvature="0"
       style="fill:#2f406a" />
    <path
       class="cls-2"
       d="M 48.48,73.11 V 55.3 h 0.41 l 14.51,8.45 0.12,0.33 V 81.33 L 48.48,73.11"
       id="path16"
       inkscape:connector-curvature="0"
       style="fill:#2379bd" />
    <path
       class="cls-3"
       d="M 63.29,46.54 48.48,55.3 63.53,64.06 78.33,55.42 63.29,46.54"
       id="path18"
       inkscape:connector-curvature="0"
       style="fill:#03afef" />
    <path
       class="cls-1"
       d="M 45.11,92.19 44.7,91.77 V 75.13 l 0.41,-0.21 0.1,-0.41 14.27,-8.32 0.44,0.1 v 17.14 l -14.8,8.76"
       id="path20"
       inkscape:connector-curvature="0"
       style="fill:#00b102;fill-opacity:1" />
    <path
       class="cls-2"
       d="M 30.06,84 V 66.16 h 0.41 L 45,74.59 45.12,74.92 V 92.19 L 30.06,84"
       id="path22"
       inkscape:connector-curvature="0"
       style="fill:#008c02;fill-opacity:1" />
    <path
       class="cls-3"
       d="m 44.86,57.4 -14.8,8.76 15.05,8.76 14.8,-8.64 -15.05,-8.88"
       id="path24"
       inkscape:connector-curvature="0"
       style="fill:#00c802;fill-opacity:1" />
    <path
       class="cls-1"
       d="M 83.27,92.6 82.86,92.18 V 75.54 l 0.41,-0.21 0.1,-0.41 14.27,-8.32 0.44,0.1 V 83.84 L 83.27,92.6"
       id="path26"
       inkscape:connector-curvature="0"
       style="fill:#00b102;fill-opacity:1" />
    <path
       class="cls-2"
       d="M 68.22,84.38 V 66.57 h 0.41 L 83.15,75 83.27,75.33 V 92.6 L 68.22,84.38"
       id="path28"
       inkscape:connector-curvature="0"
       style="fill:#008c02;fill-opacity:1" />
    <path
       class="cls-3"
       d="M 83,57.81 68.2,66.57 83.25,75.33 98.05,66.69 83,57.81"
       id="path30"
       inkscape:connector-curvature="0"
       style="fill:#00c802;fill-opacity:1" />
    <path
       class="cls-1"
       d="m 64.85,103.46 -0.41,-0.42 V 86.4 l 0.41,-0.21 0.1,-0.41 14.27,-8.32 0.44,0.1 V 94.7 l -14.8,8.76"
       id="path32"
       inkscape:connector-curvature="0"
       style="fill:#00b102;fill-opacity:1" />
    <path
       class="cls-2"
       d="m 49.8,95.23 v -17.8 h 0.41 l 14.51,8.45 0.12,0.33 v 17.27 L 49.8,95.23"
       id="path34"
       inkscape:connector-curvature="0"
       style="fill:#008c02;fill-opacity:1" />
    <path
       class="cls-3"
       d="M 64.6,68.67 49.8,77.43 64.85,86.19 79.65,77.55 64.6,68.67"
       id="path36"
       inkscape:connector-curvature="0"
       style="fill:#00c802;fill-opacity:1" />
    <path
       class="cls-1"
       d="M 63.53,57.73 63.12,57.31 V 40.67 l 0.41,-0.21 0.1,-0.41 14.27,-8.33 0.44,0.1 V 49 l -14.8,8.76"
       id="path38"
       inkscape:connector-curvature="0"
       style="fill:#00b102;fill-opacity:1" />
    <path
       class="cls-2"
       d="M 48.48,49.5 V 31.7 h 0.41 l 14.51,8.45 0.12,0.33 V 57.73 L 48.48,49.5"
       id="path40"
       inkscape:connector-curvature="0"
       style="fill:#008c02;fill-opacity:1" />
    <path
       class="cls-3"
       d="M 63.29,22.94 48.48,31.7 63.53,40.46 78.33,31.82 63.29,22.94"
       id="path42"
       inkscape:connector-curvature="0"
       style="fill:#00c802;fill-opacity:1" />
    <path
       class="cls-1"
       d="M 45.11,68.59 44.7,68.17 V 51.53 l 0.41,-0.21 0.1,-0.41 14.27,-8.32 0.44,0.1 v 17.14 l -14.8,8.76"
       id="path44"
       inkscape:connector-curvature="0"
       style="fill:#00b102;fill-opacity:1" />
    <path
       class="cls-2"
       d="M 30.06,60.36 V 42.55 h 0.41 L 45,51 45.12,51.33 V 68.59 L 30.06,60.36"
       id="path46"
       inkscape:connector-curvature="0"
       style="fill:#008c02;fill-opacity:1" />
    <path
       class="cls-3"
       d="m 44.86,33.8 -14.8,8.76 15.05,8.76 14.8,-8.64 -15.05,-8.88"
       id="path48"
       inkscape:connector-curvature="0"
       style="fill:#00c802;fill-opacity:1" />
    <path
       class="cls-1"
       d="M 83.27,69 82.86,68.58 V 51.94 l 0.41,-0.21 0.1,-0.41 14.27,-8.32 0.44,0.1 V 60.24 L 83.27,69"
       id="path50"
       inkscape:connector-curvature="0"
       style="fill:#00b102;fill-opacity:1" />
    <path
       class="cls-2"
       d="M 68.22,60.77 V 43 h 0.41 l 14.51,8.45 0.12,0.33 V 69 L 68.22,60.77"
       id="path52"
       inkscape:connector-curvature="0"
       style="fill:#008c02;fill-opacity:1" />
    <path
       class="cls-3"
       d="M 83,34.21 68.22,43 83.27,51.76 98.07,43.12 83,34.21"
       id="path54"
       inkscape:connector-curvature="0"
       style="fill:#00c802;fill-opacity:1" />
    <path
       class="cls-1"
       d="M 64.85,79.85 64.44,79.43 V 62.79 l 0.41,-0.21 0.1,-0.41 14.27,-8.32 0.44,0.1 v 17.14 l -14.8,8.76"
       id="path56"
       inkscape:connector-curvature="0"
       style="fill:#00b102;fill-opacity:1" />
    <path
       class="cls-2"
       d="M 49.8,71.63 V 53.82 h 0.41 l 14.51,8.45 0.12,0.33 V 79.85 L 49.8,71.63"
       id="path58"
       inkscape:connector-curvature="0"
       style="fill:#008c02;fill-opacity:1" />
    <path
       class="cls-3"
       d="M 64.6,45.06 49.8,53.82 64.85,62.58 79.65,53.94 64.6,45.06"
       id="path60"
       inkscape:connector-curvature="0"
       style="fill:#00c802;fill-opacity:1" />
  </g>
</svg>
